<svg width="28" height="30" viewBox="0 0 28 30" fill="none" xmlns="http://www.w3.org/2000/svg">
<path d="M6.21007 6.95988H25.7121C26.3649 6.95988 26.8427 7.57518 26.681 8.20761L25.141 14.2302C24.8014 15.5581 23.6051 16.487 22.2345 16.487H7.8608M0 1.49957H3.83163C4.81484 1.49957 5.65222 2.21422 5.80677 3.18521L8.36735 19.2733C8.52189 20.2443 9.35928 20.959 10.3425 20.959H24.5639" stroke="white" stroke-width="1.5"/>
<path d="M11.8181 24.6385C12.7967 24.6385 13.6373 25.4696 13.6375 26.5535C13.6375 27.6376 12.7968 28.4695 11.8181 28.4695C10.8396 28.4693 9.99976 27.6375 9.99976 26.5535C9.99991 25.4697 10.8397 24.6388 11.8181 24.6385Z" stroke="white" stroke-width="1.5"/>
<path d="M23.1207 24.6385C24.0993 24.6385 24.9399 25.4696 24.9401 26.5535C24.9401 27.6376 24.0994 28.4695 23.1207 28.4695C22.1422 28.4693 21.3024 27.6375 21.3024 26.5535C21.3025 25.4697 22.1423 24.6388 23.1207 24.6385Z" stroke="white" stroke-width="1.5"/>
</svg>
