<svg width="32" height="34" viewBox="0 0 32 34" fill="none" xmlns="http://www.w3.org/2000/svg">
<path d="M7.13008 7.76882H29.7121C30.3649 7.76882 30.8427 8.38411 30.681 9.01655L28.7801 16.4506C28.4405 17.7785 27.2442 18.7074 25.8736 18.7074H9.02537M0 1.49957H4.65214C5.63535 1.49957 6.47274 2.21422 6.62728 3.18521L9.6467 22.1562C9.80125 23.1272 10.6386 23.8418 11.6218 23.8418H28.203" stroke="black" stroke-width="1.5"/>
<path d="M13.5693 27.9554C14.7582 27.9554 15.7686 28.9637 15.7686 30.2659C15.7684 31.568 14.7581 32.5755 13.5693 32.5755C12.3807 32.5754 11.3703 31.5679 11.3701 30.2659C11.3701 28.9638 12.3805 27.9555 13.5693 27.9554Z" stroke="black" stroke-width="1.5"/>
<path d="M26.5469 27.9554C27.7357 27.9554 28.7461 28.9637 28.7461 30.2659C28.7459 31.568 27.7356 32.5755 26.5469 32.5755C25.3582 32.5754 24.3478 31.5679 24.3477 30.2659C24.3477 28.9638 25.3581 27.9555 26.5469 27.9554Z" stroke="black" stroke-width="1.5"/>
</svg>
